<?xml version="1.0" standalone="no"?><svg xmlns="http://www.w3.org/2000/svg" viewBox="0 0 1440 320"><path fill="transparent" fill-opacity="1" d="M0,32L13.3,74.7C26.7,117,53,203,80,224C106.7,245,133,203,160,186.7C186.7,171,213,181,240,192C266.7,203,293,213,320,224C346.7,235,373,245,400,218.7C426.7,192,453,128,480,122.7C506.7,117,533,171,560,181.3C586.7,192,613,160,640,144C666.7,128,693,128,720,122.7C746.7,117,773,107,800,112C826.7,117,853,139,880,160C906.7,181,933,203,960,224C986.7,245,1013,267,1040,277.3C1066.7,288,1093,288,1120,272C1146.7,256,1173,224,1200,224C1226.7,224,1253,256,1280,229.3C1306.7,203,1333,117,1360,85.3C1386.7,53,1413,75,1427,85.3L1440,96L1440,0L1426.7,0C1413.3,0,1387,0,1360,0C1333.3,0,1307,0,1280,0C1253.3,0,1227,0,1200,0C1173.3,0,1147,0,1120,0C1093.3,0,1067,0,1040,0C1013.3,0,987,0,960,0C933.3,0,907,0,880,0C853.3,0,827,0,800,0C773.3,0,747,0,720,0C693.3,0,667,0,640,0C613.3,0,587,0,560,0C533.3,0,507,0,480,0C453.3,0,427,0,400,0C373.3,0,347,0,320,0C293.3,0,267,0,240,0C213.3,0,187,0,160,0C133.3,0,107,0,80,0C53.3,0,27,0,13,0L0,0Z"></path></svg>